<svg width="28" height="24" viewBox="0 0 28 24" fill="none" xmlns="http://www.w3.org/2000/svg">
<path d="M19.939 12.5555C19.9285 10.957 20.7429 9.75234 22.3876 8.86406C21.4677 7.69219 20.0761 7.04766 18.2416 6.92344C16.5046 6.80156 14.6042 7.82344 13.9084 7.82344C13.173 7.82344 11.4914 6.96563 10.1682 6.96563C7.4376 7.00313 4.53563 8.90156 4.53563 12.7641C4.53563 13.9055 4.77021 15.0844 5.23938 16.2984C5.86669 17.8969 8.12817 21.8133 10.4872 21.75C11.7207 21.7242 12.5931 20.9719 14.1983 20.9719C15.7561 20.9719 16.5626 21.75 17.9385 21.75C20.3185 21.7195 22.3639 18.1594 22.9596 16.5563C19.7677 15.218 19.939 12.6375 19.939 12.5555ZM17.1688 5.40703C18.5051 3.99609 18.3839 2.71172 18.3444 2.25C17.1635 2.31094 15.7982 2.96484 15.0207 3.76875C14.1641 4.63125 13.6606 5.69766 13.7687 6.9C15.0444 6.98672 16.2094 6.40313 17.1688 5.40703Z" fill="white"/>
</svg>
